<svg width="480" height="316" viewBox="0 0 480 316" fill="none" xmlns="http://www.w3.org/2000/svg">
<path d="M99.0802 137.381C74.7797 137.492 55 137.848 55 137.848C55 137.848 78.5112 106.943 98.992 118.393C119.473 129.843 143 137.446 143 137.446C143 137.446 123.381 137.27 99.0802 137.381Z" fill="#F2F2F2"/>
<path d="M371 146.848C373.761 146.848 376 144.61 376 141.848C376 139.087 373.761 136.848 371 136.848C368.239 136.848 366 139.087 366 141.848C366 144.61 368.239 146.848 371 146.848Z" fill="#FF6584"/>
<path d="M333.99 221.163L371.977 177.542L373.149 178.563L335.162 222.184L333.99 221.163Z" fill="#3F3D56"/>
<path d="M373 185.848C377.418 185.848 381 182.267 381 177.848C381 173.43 377.418 169.848 373 169.848C368.582 169.848 365 173.43 365 177.848C365 182.267 368.582 185.848 373 185.848Z" fill="#3F3D56"/>
<path d="M349.286 204.848C349.286 204.848 364.646 185.276 345 171.848L349.286 204.848Z" fill="#3F3D56"/>
<path d="M94.578 239.253C122.726 291.444 182.467 313.848 182.467 313.848C182.467 313.848 196.57 251.635 168.422 199.444C140.274 147.253 80.5332 124.848 80.5332 124.848C80.5332 124.848 66.4298 187.062 94.578 239.253Z" fill="#3F3D56"/>
<path d="M113.621 222.308C164.431 252.965 184 313.857 184 313.857C184 313.857 121.189 325.045 70.3788 294.388C19.5686 263.732 0 202.84 0 202.84C0 202.84 62.811 191.652 113.621 222.308Z" fill="#111B47"/>
<path d="M315.194 222.578C264.108 252.816 244 313.598 244 313.598C244 313.598 306.719 325.356 357.806 295.118C408.892 264.881 429 204.099 429 204.099C429 204.099 366.281 192.341 315.194 222.578Z" fill="#3F3D56"/>
<path d="M333.739 241.069C305.134 292.984 245.207 314.848 245.207 314.848C245.207 314.848 231.657 252.543 260.261 200.628C288.866 148.713 348.793 126.848 348.793 126.848C348.793 126.848 362.343 189.154 333.739 241.069Z" fill="#111B47"/>
<path d="M229.881 98.8884C223.866 93.4457 223.024 84.2992 227.944 77.8484C227.63 78.143 227.323 78.4489 227.029 78.7741C221.25 85.1677 221.747 95.037 228.138 100.818C234.528 106.599 244.393 106.102 250.171 99.7084C250.465 99.3832 250.739 99.0468 251 98.7046C245.079 104.25 235.898 104.33 229.881 98.8884Z" fill="#2F2E41"/>
<path d="M215.5 109.848C233.449 109.848 248 95.2976 248 77.3484C248 59.3991 233.449 44.8484 215.5 44.8484C197.551 44.8484 183 59.3991 183 77.3484C183 95.2976 197.551 109.848 215.5 109.848Z" fill="#2F2E41"/>
<path d="M206.238 118.879L207.212 116.374L189.476 131.214L168.038 143.163C168.038 143.163 157.123 101.534 156.344 100.763C155.564 99.9923 141.532 70.6981 135.295 84.5743C129.058 98.4505 147.378 106.545 147.378 106.545C147.378 106.545 147.963 157.232 166.673 156.846C185.384 156.461 208.576 139.694 208.966 138.152C209.356 136.61 206.238 118.879 206.238 118.879Z" fill="#FFB8B8"/>
<path d="M211.5 110.848C222.27 110.848 231 102.118 231 91.3484C231 80.5788 222.27 71.8484 211.5 71.8484C200.73 71.8484 192 80.5788 192 91.3484C192 102.118 200.73 110.848 211.5 110.848Z" fill="#FFB8B8"/>
<path d="M214.879 105.598C214.879 105.598 219.943 112.167 218.385 112.939C216.827 113.712 207.868 114.098 202.414 120.667C196.961 127.235 209.036 143.848 209.036 143.848L255 113.326L236.303 107.144C236.303 107.144 223.449 100.189 223.838 92.8484L214.879 105.598Z" fill="#FFB8B8"/>
<path d="M277 315.848H225.37C222.445 294.511 221.093 274.957 221.093 274.957C221.093 274.957 220.339 294.626 218.331 315.848H152C161.403 253.008 205.978 184.864 205.978 184.864C205.978 184.864 206.366 175.581 207.529 174.033C208.693 172.49 200.941 172.103 197.451 160.504C195.323 153.423 197.236 148.789 199.055 146.258C199.679 145.346 200.447 144.54 201.329 143.873C201.329 143.873 202.105 135.757 201.329 134.596C201.23 134.444 201.995 133.91 203.41 133.1C204.589 132.42 206.219 131.547 208.169 130.543C219.338 124.764 240.957 114.539 248.363 111.056C249.987 110.288 250.931 109.848 250.931 109.848L264.107 114.487C274.568 117.965 274.568 140.008 274.568 140.008L273.976 140.908L258.164 164.808L248.992 178.677C251.319 180.22 246.67 189.89 246.67 189.89C246.67 189.89 253.295 199.387 258.682 213.884C261.729 221.952 263.807 230.352 264.872 238.908C265.551 244.453 265.685 250.051 265.27 255.623C263.834 274.251 270.218 296.891 277 315.848Z" fill="#2F2E41"/>
<path d="M263.951 116.283C263.091 115.794 262.063 115.714 261.139 116.063C260.216 116.412 259.492 117.156 259.161 118.095C258.007 121.303 256.838 127.991 257.255 141.896C258.021 167.469 258.404 184.905 258.404 184.905V223.652C258.404 223.652 241.551 260.848 250.744 260.848C259.936 260.848 266.447 231.401 266.447 231.401C266.447 231.401 274.874 186.842 272.192 179.093C272.192 179.093 279.752 125.558 263.951 116.283Z" fill="#FFB8B8"/>
<path d="M209.5 85.8484C218.613 85.8484 226 80.6997 226 74.3484C226 67.9971 218.613 62.8484 209.5 62.8484C200.387 62.8484 193 67.9971 193 74.3484C193 80.6997 200.387 85.8484 209.5 85.8484Z" fill="#2F2E41"/>
<path d="M236 64.8484C244.837 64.8484 252 57.6849 252 48.8484C252 40.0118 244.837 32.8484 236 32.8484C227.163 32.8484 220 40.0118 220 48.8484C220 57.6849 227.163 64.8484 236 64.8484Z" fill="#2F2E41"/>
<path d="M247 60.233C238.682 60.2319 231.752 53.9786 231.06 45.8484C231.023 46.28 231 46.7153 231 47.1561C231 55.8227 238.163 62.8484 247 62.8484C255.837 62.8484 263 55.8227 263 47.1561C263 46.7153 262.977 46.28 262.94 45.8484C262.248 53.9786 255.318 60.2319 247 60.233Z" fill="#2F2E41"/>
<path d="M230.389 87.8668C231.118 87.6928 231.386 86.2018 230.988 84.5366C230.591 82.8714 229.678 81.6625 228.949 81.8365C228.22 82.0105 227.952 83.5015 228.35 85.1667C228.748 86.8319 229.661 88.0408 230.389 87.8668Z" fill="#FFB8B8"/>
<path d="M230 87.8484C230.552 87.8484 231 87.4007 231 86.8484C231 86.2961 230.552 85.8484 230 85.8484C229.448 85.8484 229 86.2961 229 86.8484C229 87.4007 229.448 87.8484 230 87.8484Z" fill="#F2F2F2"/>
<path fill-rule="evenodd" clip-rule="evenodd" d="M40 147.348C40 150.938 42.9101 153.848 46.5 153.848C50.0882 153.844 52.996 150.937 53 147.348C53 143.759 50.0899 140.848 46.5 140.848C42.9101 140.848 40 143.759 40 147.348ZM41.0833 147.348C41.0833 144.357 43.5085 141.932 46.5 141.932C49.4901 141.935 51.9132 144.358 51.9167 147.348C51.9167 150.34 49.4915 152.765 46.5 152.765C43.5085 152.765 41.0833 150.34 41.0833 147.348Z" fill="#3F3D56"/>
<path fill-rule="evenodd" clip-rule="evenodd" d="M304 107.848H318V93.8484H304V107.848ZM316.923 106.771H305.077V94.9253H316.923V106.771Z" fill="#3F3D56"/>
<path d="M436.08 180.381C411.78 180.492 392 180.848 392 180.848C392 180.848 415.511 149.943 435.992 161.393C456.473 172.843 480 180.446 480 180.446C480 180.446 460.381 180.27 436.08 180.381Z" fill="#F2F2F2"/>
<path d="M361.08 75.381C336.78 75.4921 317 75.8484 317 75.8484C317 75.8484 340.511 44.9426 360.992 56.393C381.473 67.8434 405 75.4459 405 75.4459C405 75.4459 385.381 75.2698 361.08 75.381Z" fill="#F2F2F2"/>
<path d="M131.358 88.9813L75.2363 60.0095C71.4039 58.031 69.8946 53.3082 71.8653 49.4607L85.0868 23.6475C85.4748 22.89 86.1559 22.3258 86.9705 22.0874L131.205 9.1388C134.877 8.06376 138.746 10.0608 140.011 13.685L154.545 55.3059C155.279 57.4071 155.12 59.7188 154.106 61.699L141.865 85.5971C140.919 87.4447 139.28 88.8392 137.31 89.4739C135.339 90.1086 133.198 89.9314 131.358 88.9813Z" fill="#F2F2F2"/>
<path opacity="0.1" d="M133.347 79.4244L76.8055 55.1833C74.9836 54.2425 76.6919 55.6886 77.6287 53.859L84.7363 24.8484L154 60.6158L136.489 82.3592C135.553 84.1888 135.169 80.3652 133.347 79.4244Z" fill="black"/>
<path d="M86.1565 62.489C82.136 60.4216 80.5526 55.4863 82.6201 51.4657L101.66 14.4388C103.727 10.4183 108.662 8.83493 112.683 10.9024L149.71 29.942C153.73 32.0095 155.314 36.9448 153.246 40.9653L134.207 77.9922C132.139 82.0128 127.204 83.5961 123.183 81.5287L86.1565 62.489Z" fill="#111B47"/>
<path opacity="0.1" d="M145 56.4339L130.458 84.8484L79 58.2623L93.542 29.8484L112.877 55.6361L145 56.4339Z" fill="black"/>
<path d="M112.252 57.5052L87.2877 24.4506C86.9738 24.0349 86.4677 23.8096 85.948 23.8539C85.4282 23.8982 84.9678 24.2061 84.7293 24.6688L70.5238 52.2244C69.9499 53.3378 69.8428 54.633 70.2262 55.8251C70.6096 57.0172 71.4521 58.0085 72.5683 58.581L134.46 90.3259C135.577 90.8984 136.875 91.0052 138.07 90.6227C139.265 90.2403 140.259 89.3999 140.833 88.2866L154.795 61.2031C155.086 60.6384 155.066 59.9641 154.741 59.418C154.416 58.872 153.833 58.5309 153.196 58.5152L112.252 57.5052Z" fill="#F2F2F2"/>
<path d="M107.412 14.1805L121.839 21.599L120.79 23.6391L106.363 16.2207L107.412 14.1805Z" fill="#F2F2F2"/>
<path d="M102.425 21.0131L145.268 43.0435L144.669 44.2093L101.826 22.1789L102.425 21.0131Z" fill="#F2F2F2"/>
<path d="M100.402 24.9476L143.245 46.9781L142.645 48.1439L99.8023 26.1134L100.402 24.9476Z" fill="#F2F2F2"/>
<path d="M98.3786 28.8822L141.222 50.9127L140.622 52.0785L97.7791 30.048L98.3786 28.8822Z" fill="#F2F2F2"/>
<path d="M113.073 12.1302C114.773 8.8244 113.476 4.76905 110.176 3.07228C106.877 1.37551 102.824 2.67984 101.124 5.9856C99.4238 9.29135 100.721 13.3467 104.021 15.0435C107.32 16.7402 111.373 15.4359 113.073 12.1302Z" fill="white"/>
<path fill-rule="evenodd" clip-rule="evenodd" d="M99.8874 5.19079C101.908 1.26238 106.733 -0.284669 110.664 1.73536C114.583 3.76444 116.128 8.57644 114.121 12.506C112.1 16.4344 107.275 17.9814 103.345 15.9614C99.4142 13.9414 97.8664 9.1192 99.8874 5.19079ZM101.82 6.37005L103.592 11.89L113.541 8.70556L113.044 7.15728L104.646 9.85018L103.369 5.87333L101.82 6.37005Z" fill="#57B894"/>
</svg>
