<svg width="540" height="388" viewBox="0 0 540 388" fill="none" xmlns="http://www.w3.org/2000/svg">
<path d="M540 232.723C540 300.377 499.706 324 450 324C400.294 324 360 300.377 360 232.723C360 165.068 450 79 450 79C450 79 540 165.068 540 232.723Z" fill="#F2F2F2"/>
<path d="M446.955 313.877L447.871 257.202L486 187.086L448.015 248.311L448.427 222.827L474.705 172.099L448.535 216.083V216.084L449.276 170.25L477.416 129.864L449.392 163.043L449.855 79L446.947 190.257L447.186 185.668L418.576 141.65L446.727 194.478L444.061 245.666L443.982 244.308L411 197.985L443.882 249.107L443.549 255.509L443.489 255.605L443.516 256.131L436.753 386H445.789L446.873 318.92L479.675 267.923L446.955 313.877Z" fill="#3F3D56"/>
<path d="M49 345.411C49 363.636 38.031 370 24.5 370C10.969 370 0 363.636 0 345.411C0 327.186 24.5 304 24.5 304C24.5 304 49 327.186 49 345.411Z" fill="#F2F2F2"/>
<path d="M23.5881 366.501L23.8321 351.178L34 332.222L23.8705 348.774L23.9803 341.885L30.988 328.17L24.0095 340.062L24.2069 327.67L31.7111 316.751L24.2382 325.721L24.3616 303L23.586 333.079L23.6493 331.838L16.0201 319.938L23.527 334.22L22.8164 348.059L22.7953 347.692L14 335.168L22.7682 348.99L22.6795 350.72L22.6638 350.746L22.6709 350.888L20.8671 386H23.2772L23.566 367.864L32.3136 354.077L23.5881 366.501Z" fill="#3F3D56"/>
<path d="M3 386.5H492" stroke="#3F3D56" stroke-width="2"/>
<path d="M493 370.235C493 382.661 485.613 387 476.5 387C476.289 387 476.078 386.998 475.868 386.993C475.445 386.984 475.027 386.964 474.614 386.936C466.39 386.354 460 381.792 460 370.235C460 358.275 475.284 343.183 476.432 342.066L476.434 342.064C476.478 342.021 476.5 342 476.5 342C476.5 342 493 357.808 493 370.235Z" fill="#111B47"/>
<path d="M475.712 385.106L481.819 376.672L475.696 386.032L475.68 387C475.253 386.991 474.83 386.971 474.411 386.943L475.07 374.508L475.065 374.412L475.076 374.394L475.138 373.219L469 363.836L475.157 372.339L475.171 372.588L475.669 363.193L470.414 353.497L475.733 361.544L476.251 342.066L476.253 342V342.064L476.166 357.424L481.398 351.335L476.145 358.747L476.007 367.158L480.891 359.086L475.986 368.396L475.909 373.072L483 361.837L475.883 374.704L475.712 385.106Z" fill="#3F3D56"/>
<rect x="313" y="88" width="6" height="47" rx="2.29166" fill="#3F3D56"/>
<rect x="124" y="51" width="3" height="15" rx="1.5" fill="#3F3D56"/>
<rect x="124" y="79" width="4" height="27" rx="1.6946" fill="#3F3D56"/>
<rect x="124" y="116" width="3" height="27" rx="1.5" fill="#3F3D56"/>
<rect x="126" width="190" height="386" rx="35.694" fill="#3F3D56"/>
<rect x="202" y="12" width="27" height="5" rx="2.5" fill="#E6E8EC"/>
<path d="M236 17C237.657 17 239 15.6569 239 14C239 12.3431 237.657 11 236 11C234.343 11 233 12.3431 233 14C233 15.6569 234.343 17 236 17Z" fill="#E6E8EC"/>
<path d="M305 25.0897V360.916C304.998 369.248 298.223 376.001 289.867 376H153.133C144.777 376.001 138.002 369.248 138 360.916V25.0897C138 21.0875 139.594 17.2492 142.432 14.4193C145.27 11.5893 149.119 9.99966 153.133 10H173.594V12.6205C173.596 19.4819 179.174 25.0437 186.055 25.0456H255.592C262.474 25.0456 268.053 19.4827 268.053 12.6205V10H289.867C293.881 9.99966 297.73 11.5893 300.568 14.4193C303.406 17.2492 305 21.0875 305 25.0897Z" fill="white"/>
<rect x="138" y="88" width="167" height="192" fill="#F2F2F2"/>
<path d="M150 306L149.13 305.221C146.04 302.403 144.001 300.575 144.001 298.297C143.985 297.422 144.327 296.577 144.949 295.956C145.57 295.335 146.419 294.99 147.3 295C148.343 295.006 149.33 295.466 150 296.259C150.67 295.466 151.657 295.006 152.7 295C153.581 294.99 154.43 295.335 155.051 295.956C155.673 296.577 156.015 297.422 155.999 298.297C155.999 300.575 153.96 302.403 150.87 305.221L150 306Z" fill="#FF6584"/>
<path d="M181 303.537L182.734 304C183.363 302.298 184.85 300.995 186.709 300.516C188.568 300.037 190.561 300.443 192.036 301.603L189.387 304H196V298L193.335 300.384C191.4 298.8 188.741 298.229 186.258 298.863C183.776 299.498 181.8 301.254 181 303.538L181 303.537Z" fill="#F2F2F2"/>
<path d="M148.5 74C152.642 74 156 70.6421 156 66.5C156 62.3579 152.642 59 148.5 59C144.358 59 141 62.3579 141 66.5C141 70.6421 144.358 74 148.5 74Z" fill="#111B47"/>
<rect x="162" y="62" width="72" height="9" fill="#111B47"/>
<rect x="143" y="319" width="72" height="9" fill="#F2F2F2"/>
<rect x="144" y="338" width="151" height="9" fill="#F2F2F2"/>
<path d="M174 306L172.156 302.713C173.068 300.483 172.229 297.91 170.189 296.678C168.149 295.446 165.53 295.932 164.046 297.816C162.563 299.701 162.668 302.41 164.292 304.17C165.916 305.93 168.564 306.204 170.503 304.813L174 306Z" fill="#F2F2F2"/>
<path d="M206.555 132.45H206.555C200.85 133.63 195.842 137.051 192.634 141.96C189.425 146.87 188.278 152.866 189.446 158.629L193.977 181L199.051 179.951L199.409 177.58L200.472 179.657L231.318 173.28L231.676 170.91L232.739 172.987L237 172.106L232.468 149.735C231.301 143.971 227.915 138.912 223.055 135.671C218.196 132.429 212.26 131.271 206.555 132.45Z" fill="#2F2E41"/>
<path d="M245.647 201L272 217.186L268.706 225L244 213.279L245.647 201Z" fill="#9F616A"/>
<path d="M211.906 219.639C211.906 219.639 158.392 219.639 149.565 233.4C140.738 247.161 147.91 266.426 175.495 270.829C203.079 275.233 286.937 277.435 293.557 260.922C300.178 244.408 295.213 235.051 295.213 235.051C295.213 235.051 266.524 215.235 211.906 219.639Z" fill="#111B47"/>
<path d="M258.606 232.985L288 244C288 244 300.202 235.188 294.101 225.275C288 215.362 260.269 158.085 260.269 158.085C260.269 158.085 252.505 147.071 262.488 141.013C272.471 134.955 276.353 144.868 276.353 144.868C276.353 144.868 275.799 147.071 279.681 145.419C283.563 143.766 290.774 149.274 286.891 158.085C283.009 166.897 280.236 169.1 288.555 168.549C291.559 168.351 294.202 166.213 296.352 163.562C300.474 158.482 298.634 154.39 298.322 147.873C297.788 136.71 296.914 129.431 294.101 125.041C290.219 118.983 284.673 114.027 270.253 116.78C255.833 119.534 234.757 133.302 239.749 153.129C244.74 172.955 255.833 194.985 255.833 194.985C255.833 194.985 263.597 225.826 258.606 232.985Z" fill="#111B47"/>
<path opacity="0.1" d="M259 232.777C254.238 234.09 248.257 234.731 241.82 234.929C230.587 235.277 217.943 234.284 207.845 233.157C196.937 231.937 189 230.568 189 230.568C192.687 227.124 198.354 225.76 205.012 225.263C213.28 224.645 223.08 225.352 232.543 225.048C236.032 224.926 239.524 225.189 242.955 225.832C253.395 227.825 259 232.777 259 232.777Z" fill="black"/>
<path d="M211.5 173C220.06 173 227 166.06 227 157.5C227 148.94 220.06 142 211.5 142C202.94 142 196 148.94 196 157.5C196 166.06 202.94 173 211.5 173Z" fill="#9F616A"/>
<path d="M209.253 170.111C209.253 170.111 211.975 180.667 209.253 181.222C206.532 181.778 200 184.556 200 184.556L208.165 187.889L223.405 202.333L236.468 209L243 206.778V194.556L233.203 179C233.203 179 226.671 181.222 225.038 174C223.405 166.778 220.139 164 220.139 164L209.253 170.111Z" fill="#9F616A"/>
<path d="M205.355 185H198.739C198.739 185 187.159 188.837 180.543 197.606C173.926 206.376 163.45 215.145 163.45 215.145C163.45 215.145 156.282 225.011 160.141 238.714C164.001 252.416 169.515 262.282 174.477 259.541C179.44 256.801 167.309 237.069 167.309 237.069L170.618 225.011C170.618 225.011 187.711 205.28 194.879 205.828C202.047 206.376 202.598 212.405 202.598 212.405L218.037 216.79L223 206.376L220.243 195.414L205.355 185Z" fill="#9F616A"/>
<path d="M244.775 220.238C243.739 222.01 242.979 223.929 242.522 225.929C241.838 228.883 241.459 231.899 241.393 234.93C230.22 235.274 217.645 234.291 207.601 233.177C206.713 230.817 205.737 228.103 204.784 225.366C202.212 217.971 199.822 210.423 199.822 209.314C199.822 207.129 211.335 210.952 214.076 210.406C216.817 209.86 217.913 201.121 214.076 196.751C210.238 192.382 199 185.008 199 185.008L202.837 183.916C202.837 183.916 211.335 190.197 228.877 200.575C246.42 210.952 239.293 194.567 239.293 194.567L229.151 179H233.537C233.537 179 242.034 193.474 246.42 200.028C250.806 206.583 249.161 213.137 244.775 220.238Z" fill="#3F3D56"/>
<path d="M194.366 142.901L222.282 137.188L225.788 154.319L197.872 160.031L194.366 142.901Z" fill="#2F2E41"/>
<path d="M282.5 140C287.194 140 291 136.194 291 131.5C291 126.806 287.194 123 282.5 123C277.806 123 274 126.806 274 131.5C274 136.194 277.806 140 282.5 140Z" fill="#3F3D56"/>
<path d="M282.5 136C284.985 136 287 133.985 287 131.5C287 129.015 284.985 127 282.5 127C280.015 127 278 129.015 278 131.5C278 133.985 280.015 136 282.5 136Z" fill="white"/>
<path d="M39.4672 226L38.8935 230.328C38.6994 231.793 38.5051 233.259 38.4005 234.733C38.0527 239.635 38.7011 244.558 38.5304 249.469C38.3991 253.251 37.7825 257.029 38.0803 260.802C38.3438 264.138 39.3157 267.378 40.2821 270.588L41.6634 275.177C41.6863 275.455 41.8406 275.707 42.0805 275.858C42.3205 276.009 42.6188 276.042 42.8872 275.947L49 275.405C48.6085 273.651 48.1731 271.823 47.9627 270.04C47.7964 268.63 47.6964 267.213 47.592 265.797C47.2667 261.383 46.8984 256.972 46.5302 252.562L45.8832 244.814C45.6026 241.453 45.3186 238.072 44.4527 234.808C43.5897 231.503 41.8731 228.471 39.4672 226Z" fill="#111B47"/>
<path opacity="0.1" d="M39.4672 226L38.8935 230.328C38.6994 231.793 38.5051 233.259 38.4005 234.733C38.0527 239.635 38.7011 244.558 38.5304 249.469C38.3991 253.251 37.7825 257.029 38.0803 260.802C38.3438 264.138 39.3157 267.378 40.2821 270.588L41.6634 275.177C41.6863 275.455 41.8406 275.707 42.0805 275.858C42.3205 276.009 42.6188 276.042 42.8872 275.947L49 275.405C48.6085 273.651 48.1731 271.823 47.9627 270.04C47.7964 268.63 47.6964 267.213 47.592 265.797C47.2667 261.383 46.8984 256.972 46.5302 252.562L45.8832 244.814C45.6026 241.453 45.3186 238.072 44.4527 234.808C43.5897 231.503 41.8731 228.471 39.4672 226Z" fill="black"/>
<path d="M50.8466 375.44C50.4903 376.138 50.1802 376.859 49.9183 377.598C49.2235 379.639 49.1185 381.826 49.0197 383.979C48.9722 384.395 49.0108 384.815 49.1329 385.215C49.4299 385.989 50.286 386.382 51.0862 386.597C54.4378 387.499 57.9716 386.65 61.4284 386.341C64.8213 386.037 68.2776 386.257 71.6008 385.508C72.092 385.415 72.5667 385.25 73.0095 385.018C73.852 384.471 74.4804 383.649 74.7895 382.693C74.8906 382.448 74.9586 382.191 74.9916 381.929C75.1014 380.796 74.1143 379.811 73.0392 379.439C71.9641 379.067 70.7951 379.128 69.6633 379.012C64.8768 378.52 61.0155 374.876 60.245 370.125C60.2049 369.877 54.6487 370.023 54.0639 370.344C53.3794 370.72 52.9651 371.658 52.5795 372.291C51.9564 373.315 51.3788 374.364 50.8466 375.44Z" fill="#3F3D56"/>
<path opacity="0.1" d="M50.8466 375.44C50.4903 376.138 50.1802 376.859 49.9183 377.598C49.2235 379.639 49.1185 381.826 49.0197 383.979C48.9722 384.395 49.0108 384.815 49.1329 385.215C49.4299 385.989 50.286 386.382 51.0862 386.597C54.4378 387.499 57.9716 386.65 61.4284 386.341C64.8213 386.037 68.2776 386.257 71.6008 385.508C72.092 385.415 72.5667 385.25 73.0095 385.018C73.852 384.471 74.4804 383.649 74.7895 382.693C74.8906 382.448 74.9586 382.191 74.9916 381.929C75.1014 380.796 74.1143 379.811 73.0392 379.439C71.9641 379.067 70.7951 379.128 69.6633 379.012C64.8768 378.52 61.0155 374.876 60.245 370.125C60.2049 369.877 54.6487 370.023 54.0639 370.344C53.3794 370.72 52.9651 371.658 52.5795 372.291C51.9564 373.315 51.3788 374.364 50.8466 375.44Z" fill="black"/>
<path d="M59.8466 375.44C59.4903 376.138 59.1802 376.859 58.9183 377.598C58.2235 379.639 58.1185 381.826 58.0197 383.979C57.9722 384.395 58.0108 384.815 58.1329 385.215C58.4299 385.989 59.286 386.382 60.0862 386.597C63.4378 387.499 66.9716 386.65 70.4284 386.341C73.8213 386.037 77.2776 386.257 80.6008 385.508C81.092 385.415 81.5667 385.25 82.0095 385.018C82.852 384.471 83.4804 383.649 83.7895 382.693C83.8906 382.448 83.9586 382.191 83.9916 381.929C84.1014 380.796 83.1143 379.811 82.0392 379.439C80.9641 379.067 79.7951 379.128 78.6633 379.012C73.8768 378.52 70.0155 374.876 69.245 370.125C69.2049 369.877 63.6487 370.023 63.0639 370.344C62.3794 370.72 61.9651 371.658 61.5795 372.291C60.9564 373.315 60.3788 374.364 59.8466 375.44Z" fill="#3F3D56"/>
<path d="M82.9989 320.955C83.0691 332.001 79.8876 342.798 76.156 353.182C74.6786 357.293 73.1109 361.367 71.4529 365.406C70.4713 367.8 69.3653 370.455 70.4172 372.819C67.3902 371.655 64.2909 370.968 61.0953 371.505C62.3117 369.002 62.1973 366.087 62.2515 363.3C62.3571 359.516 62.7605 355.746 63.4579 352.027C64.5283 346.367 66.3648 340.883 68.9157 335.729C69.4328 334.642 69.7893 333.484 69.9735 332.293C70.3047 329.644 70.1523 326.956 69.5239 324.362C68.3579 318.616 66.1444 313.139 62.9962 308.209C62.9862 308.319 62.9761 308.43 62.9641 308.54C62.7737 310.183 62.4997 311.814 62.1431 313.429C61.4285 316.85 60.5955 320.273 60.7199 323.713C60.8539 327.361 60.63 331.014 60.0515 334.618C59.8678 336.034 59.5028 337.419 58.9656 338.74C58.6163 339.531 58.1607 340.275 57.8856 341.094C57.6128 342.04 57.4703 343.02 57.4621 344.006C57.0546 352.325 57.4561 362.969 59.1402 371.123C56.3022 370.991 53.482 371.64 50.9806 373C48.9452 367.201 47.6485 358.965 46.6789 352.858C45.581 345.643 45.8042 338.287 47.3373 331.154C47.8142 328.774 47.9929 326.343 47.8693 323.918C47.6525 319.088 46.4762 314.363 45.308 309.675C44.7138 307.295 44.1197 304.915 43.5255 302.534C42.6804 299.143 41.834 295.752 40.9863 292.359C40.4242 290.103 39.8562 287.799 40.0328 285.478C40.1569 284.206 40.4215 282.951 40.8217 281.738C42.0862 277.611 43.9767 273.706 46.426 270.163C56.1794 270.716 66.0513 269.794 75.7906 269.038C76.2642 268.943 76.7557 269.028 77.1717 269.275C77.5023 269.615 77.6992 270.066 77.7257 270.542C78.9461 277.52 80.1659 284.499 81.385 291.478C81.9787 294.392 82.3272 297.351 82.4268 300.325C82.4448 303.288 81.9691 306.241 82.0795 309.203C82.228 313.192 82.9748 316.964 82.9989 320.955Z" fill="#2F2E41"/>
<path opacity="0.1" d="M63 309.181C62.806 310.8 62.5268 312.409 62.1634 314C60.0015 310.348 57.6719 306.787 55.6818 303.043C55.1684 302.078 54.6796 301.101 54.1887 300.125C53.6999 299.15 53.211 298.175 52.7222 297.2C52.4481 296.653 52.172 296.103 51.9245 295.542C51.5202 294.733 51.2101 293.883 51 293.006C51.724 292.876 53.5076 294.783 54.0434 295.28C55.1427 296.339 56.1806 297.457 57.1523 298.629C58.3281 299.929 59.4074 301.309 60.3819 302.759C61.6274 304.736 62.5132 306.909 63 309.181Z" fill="black"/>
<path d="M72 207.615C72 207.615 66.4486 216.577 67.4766 218.452C68.5047 220.328 50 216.785 50 216.785C50 216.785 60.0748 207.824 59.0467 204.072C58.0187 200.321 72 207.615 72 207.615Z" fill="#EFB7B9"/>
<path d="M66.5 210C73.4036 210 79 204.404 79 197.5C79 190.596 73.4036 185 66.5 185C59.5964 185 54 190.596 54 197.5C54 204.404 59.5964 210 66.5 210Z" fill="#EFB7B9"/>
<path d="M71.8634 216.214C70.5287 214.368 68.7168 212.916 66.6195 212.01C65.4121 211.581 64.1639 211.275 62.8941 211.097L57.9192 210.228C56.7 210.015 55.395 209.811 54.2639 210.311C53.6858 210.601 53.1594 210.983 52.7059 211.442C50.9767 213.033 49.301 214.783 47.1331 215.701C46.5396 215.953 45.9189 216.137 45.3263 216.39C42.9007 217.428 41.0871 219.595 40.0567 222.011C38.9757 224.545 38.9444 227.292 39.0297 230.044C39.027 230.993 39.121 231.94 39.3102 232.871C39.5612 233.757 39.8765 234.623 40.2538 235.464C40.9408 237.258 41.5162 239.093 41.9767 240.958C43.2655 245.86 44.337 250.811 45.1911 255.813C45.2656 256.532 45.4784 257.23 45.818 257.869C46.298 258.505 46.8789 259.059 47.5379 259.51C48.0597 259.94 48.542 260.415 48.9792 260.929C49.1924 261.149 49.3488 261.417 49.4346 261.71C49.596 262.449 48.9383 263.083 48.4045 263.622C47.2956 264.746 46.494 266.133 46.0758 267.651C45.8153 267.962 45.6831 268.36 45.7059 268.764C45.8127 269.044 45.8524 269.345 45.8221 269.643C45.7197 269.915 45.5598 270.162 45.3532 270.367C44.8721 270.99 44.6836 271.787 44.8358 272.557C48.7009 274.226 52.8373 275.188 57.0462 275.397C58.0769 275.445 59.1116 275.446 60.1356 275.571C60.866 275.66 61.5875 275.813 62.3184 275.898C63.3817 275.997 64.4505 276.024 65.5175 275.979C71.0675 275.87 76.7804 275.727 81.8769 273.541C82.357 270.944 81.3227 268.297 80.6739 265.737C79.6421 261.664 79.3821 257.441 78.6144 253.311C78.089 250.485 77.3258 247.703 76.8882 244.862C76.4506 242.021 76.348 239.076 77.1341 236.31C77.8308 233.858 78.041 231.363 78.7631 228.919C79.4852 226.475 79.9912 223.826 79.176 221.411C78.1653 218.417 75.0376 216.048 71.8634 216.214Z" fill="#111B47"/>
<path d="M77.8375 191.496C78.4466 189.312 77.2487 187.039 75.8156 185.264C74.2757 183.358 72.286 181.638 69.8565 181.159C67.8821 180.77 65.8362 181.24 63.8287 181.083C62.0493 180.945 60.3443 180.318 58.5741 180.093C56.9728 179.925 55.355 179.985 53.7713 180.272C52.2659 180.488 50.7946 180.891 49.3932 181.473C44.0609 183.793 40.9365 189.523 40.2115 195.206C39.4865 200.888 40.7578 206.613 42.0215 212.204L43.1638 217.258C44.3527 222.519 45.5457 227.806 45.8638 233.186C46.1819 238.565 45.5884 244.087 43.3349 249C50.6209 245.157 56.2662 238.881 59.2499 231.307C60.0602 229.226 60.6601 227.068 61.5576 225.023C62.3299 223.263 63.3185 221.596 64.0029 219.801C64.7749 217.774 65.1455 215.621 65.095 213.457C65.056 211.831 64.7789 210.212 64.8272 208.587C64.8755 206.961 65.2967 205.264 66.4413 204.088C67.4588 203.043 68.9045 202.541 70.2156 201.883C72.2775 200.843 74.0788 199.367 75.4896 197.561C76.3151 196.505 76.3591 196.054 76.5691 194.836C76.7733 193.651 77.5168 192.646 77.8375 191.496Z" fill="#2F2E41"/>
<path d="M77.8934 283.916C78.0205 285.207 77.7861 286.531 78.0684 287.798C78.2805 288.75 78.7734 289.615 79.0632 290.546C79.351 291.625 79.499 292.737 79.5037 293.854C79.5456 294.791 79.4737 295.929 78.6458 296.368C78.2822 296.561 77.8461 296.565 77.4676 296.727C77.0892 296.888 76.7645 297.347 76.9812 297.698C77.1634 297.992 77.577 297.995 77.916 298.065C78.255 298.135 78.628 298.486 78.4313 298.771C78.3522 298.864 78.247 298.931 78.1293 298.963C77.7827 299.068 77.4545 299.226 77.1568 299.432C76.8558 299.646 76.701 300.012 76.7565 300.378C76.7978 300.552 76.9172 300.699 77.0803 300.774C77.2434 300.849 77.432 300.845 77.5917 300.763C77.4398 301.087 77.3568 301.44 77.348 301.798C78.6727 302.368 80.1638 301.623 81.4105 300.898C81.9512 300.598 82.4731 300.266 82.9735 299.902C85.0118 298.327 86.1396 295.845 85.9861 293.273C85.9284 292.635 85.8306 292.002 85.6936 291.377C85.5003 290.289 85.2451 289.213 84.9294 288.155C84.573 287.038 84.0831 285.97 83.663 284.876C82.7678 282.545 82.1915 280.104 81.3854 277.74C81.3621 277.512 81.2447 277.304 81.0615 277.166C80.8783 277.028 80.6459 276.972 80.4202 277.013C79.5118 276.966 78.6014 277.05 77.717 277.262C77.1825 277.418 76.3058 277.762 76.0662 278.322C75.8503 278.827 76.2121 279.279 76.4417 279.711C77.1933 281.005 77.6864 282.433 77.8934 283.916Z" fill="#EFB7B9"/>
<path opacity="0.1" d="M77.3143 222C77.5724 222.269 77.7886 222.577 77.9552 222.914C79.6742 226.115 79.696 229.947 79.7768 233.6C79.8678 237.713 80.0874 241.821 80.307 245.928L80.9638 258.211C81.0265 259.384 81.0894 260.559 81.25 261.723C82.0226 261.923 82.0546 262.946 81.965 263.757C81.412 268.769 80.0359 273.929 81.477 278.753C81.5321 279.001 81.6481 279.231 81.814 279.421C81.0876 279.186 80.3099 279.176 79.5776 279.39C78.8592 279.545 78.1685 279.815 77.4527 279.982C76.5418 280.194 75.5092 280.285 74.8878 281C74.1856 278.832 73.6264 276.619 73.214 274.375C72.8729 272.335 72.78 270.214 71.969 268.319C71.6415 267.554 71.204 266.844 70.8048 266.116C68.7044 262.282 67.676 257.946 66.6709 253.672C66.2197 251.645 66.1115 249.554 66.3511 247.49C66.4939 246.548 66.5777 245.598 66.6021 244.645C66.5381 243.64 66.4095 242.64 66.2173 241.652C65.793 238.754 65.9917 235.797 66.7996 232.986C67.5523 230.376 68.2122 227.63 69.7862 225.437C71.3603 223.245 74.6584 222.037 77.3143 222Z" fill="black"/>
<path d="M77.3143 221C77.5724 221.269 77.7886 221.577 77.9552 221.914C79.6742 225.115 79.696 228.947 79.7768 232.6C79.8678 236.713 80.0874 240.821 80.307 244.928L80.9638 257.211C81.0265 258.384 81.0894 259.559 81.25 260.723C82.0226 260.923 82.0546 261.946 81.965 262.757C81.412 267.769 80.0359 272.929 81.477 277.753C81.5321 278.001 81.6481 278.231 81.814 278.421C81.0876 278.186 80.3099 278.176 79.5776 278.39C78.8592 278.545 78.1685 278.815 77.4527 278.982C76.5418 279.194 75.5092 279.285 74.8878 280C74.1856 277.832 73.6264 275.619 73.2141 273.375C72.8729 271.335 72.78 269.214 71.969 267.319C71.6415 266.554 71.204 265.844 70.8048 265.116C68.7044 261.282 67.676 256.946 66.6709 252.672C66.2197 250.645 66.1115 248.554 66.3511 246.49C66.4939 245.548 66.5777 244.598 66.6021 243.645C66.5381 242.64 66.4095 241.64 66.2173 240.652C65.793 237.754 65.9917 234.797 66.7996 231.986C67.5523 229.376 68.2122 226.63 69.7862 224.437C71.3603 222.245 74.6584 221.037 77.3143 221Z" fill="#111B47"/>
<g opacity="0.1">
<path d="M75.697 184.58C74.1619 182.66 72.1785 180.927 69.7565 180.445C67.7883 180.053 65.7489 180.526 63.7477 180.369C61.9739 180.229 60.2742 179.598 58.5096 179.372C56.9133 179.202 55.3006 179.263 53.7219 179.552C52.2211 179.769 50.7544 180.176 49.3574 180.761C48.6026 181.095 47.8821 181.5 47.2062 181.972C48.4516 181.504 49.7437 181.17 51.0606 180.974C52.6393 180.684 54.252 180.624 55.8483 180.794C57.613 181.02 59.3126 181.651 61.0864 181.791C63.0876 181.948 65.1271 181.475 67.0953 181.867C69.5172 182.349 71.5006 184.082 73.0357 186.002C74.4644 187.789 75.6585 190.079 75.0513 192.279C74.7316 193.437 73.9905 194.448 73.7869 195.642C73.5776 196.869 73.5337 197.324 72.7108 198.387C71.6516 199.755 70.3703 200.939 68.9195 201.89C69.3199 201.701 69.7232 201.517 70.1146 201.318C72.17 200.271 73.9656 198.784 75.372 196.966C76.195 195.902 76.2388 195.448 76.4481 194.22C76.6517 193.027 77.3928 192.015 77.7125 190.857C78.3198 188.657 77.1256 186.367 75.697 184.58Z" fill="black"/>
<path d="M66.3521 203.539C66.5667 203.319 66.8003 203.118 67.0503 202.938C65.8571 203.511 64.6019 204.016 63.6909 204.961C62.5499 206.145 62.13 207.854 62.0819 209.492C62.0337 211.13 62.31 212.76 62.3488 214.398C62.3992 216.577 62.0297 218.746 61.2602 220.788C60.5779 222.595 59.5924 224.274 58.8226 226.046C57.9278 228.106 57.3299 230.28 56.5221 232.375C53.9419 238.988 49.36 244.645 43.4066 248.569C43.3763 248.637 43.3491 248.707 43.3181 248.775C50.5814 244.904 56.2089 238.583 59.1833 230.954C59.9911 228.859 60.5891 226.685 61.4838 224.625C62.2536 222.852 63.2391 221.173 63.9214 219.366C64.6909 217.324 65.0604 215.155 65.01 212.976C64.9712 211.338 64.695 209.708 64.7431 208.07C64.7912 206.433 65.2111 204.724 66.3521 203.539Z" fill="black"/>
</g>
<path d="M338.525 384.822C337.925 385.504 336.897 385.641 335.967 385.731C334.765 385.895 333.546 385.917 332.339 385.796C330.905 385.595 330.045 386.363 328.735 385.772C327.942 385.415 326.722 386.129 325.929 385.772C324.843 385.283 321.091 385.182 320.429 384.226C319.768 383.271 319.835 381.762 320.881 381.199C321.178 381.066 321.484 380.953 321.797 380.861C323.548 380.205 327.096 375.258 328.959 375.005C329.883 374.965 330.801 375.168 331.609 375.593C333.446 376.36 336.689 376.966 337.491 378.914C338.115 380.431 339.824 383.339 338.525 384.822Z" fill="#2F2E41"/>
<path d="M351.47 385.4C352.063 386.122 353.079 386.267 353.999 386.362C355.186 386.536 356.391 386.559 357.584 386.431C359.002 386.219 360.73 387.446 362.025 386.821C362.809 386.443 364.015 386.64 364.798 386.262C365.872 385.743 370.922 386.899 371.576 385.888C372.229 384.876 372.163 383.278 371.129 382.682C370.836 382.541 370.533 382.422 370.223 382.324C368.492 381.63 362.768 375.274 360.926 375.005C360.012 374.963 359.105 375.178 358.306 375.628C356.491 376.44 353.284 377.082 352.492 379.144C351.875 380.751 350.186 383.829 351.47 385.4Z" fill="#2F2E41"/>
<path d="M357.088 272.843C357.653 273.92 358.147 275.033 358.566 276.174C363.581 289.335 364.001 303.718 364.209 317.786C364.191 320.074 364.323 322.36 364.603 324.63C364.813 326.07 365.145 327.526 364.931 328.965C364.746 330.209 364.155 331.437 364.391 332.673C364.496 333.227 364.764 333.741 364.87 334.296C364.951 334.904 364.934 335.521 364.82 336.123L364.147 341.086C363.764 343.913 362.88 346.636 362.928 349.488C362.961 351.433 362.994 353.382 363.213 355.316C363.434 357.279 363.847 359.228 363.868 361.203C363.884 362.683 363.68 364.154 363.548 365.628C363.362 367.709 363.32 369.8 363.422 371.887C363.5 373.495 363.686 375.165 364.546 376.53C363.583 377.9 362.629 379.128 361.087 379.799C357.953 381.162 354.358 380.699 350.972 380.212C351.159 379.592 351.45 378.889 351.179 378.3C351.02 378.015 350.824 377.752 350.598 377.515C349.859 376.473 349.345 375.289 349.091 374.04C348.681 372.558 348.271 370.963 349.112 369.541C349.402 369.035 349.53 368.453 349.479 367.873C348.778 358.543 346.686 348.89 348.613 339.734C348.819 338.756 349.064 337.785 349.179 336.793C349.282 335.366 349.299 333.934 349.23 332.506L349.19 330.517C349.089 328.394 349.176 326.219 348.747 324.12C348.44 322.617 347.866 321.106 348.573 319.574C348.886 318.862 348.847 318.046 348.468 317.366C346.981 314.781 345.785 312.042 344.901 309.198C344.717 308.403 344.466 307.625 344.15 306.872C343.718 306.079 343.222 305.322 342.667 304.609C340.989 302.195 339.985 299.394 339 296.63C339.105 296.376 339.025 296.024 338.751 296.06C338.48 296.129 338.247 296.301 338.104 296.539C336.755 298.338 336.642 300.739 336.581 302.981C336.478 305.064 336.514 307.151 336.688 309.23C336.804 310.318 336.995 311.399 337.094 312.489C337.223 314.524 337.19 316.566 336.996 318.595L336.307 328.582C336.214 329.408 336.264 330.244 336.455 331.052C336.898 332.452 337.113 333.913 337.094 335.379C336.913 341.412 337.438 347.446 338.661 353.358C338.997 354.991 339.386 356.613 339.672 358.255C340.345 362.124 340.437 366.067 340.528 369.992C340.583 372.406 340.623 374.906 339.664 377.126C339.29 377.81 339.015 378.543 338.848 379.304C338.844 379.696 338.792 380.086 338.691 380.466C338.41 381.184 337.566 381.49 336.806 381.654C335.38 381.962 333.917 382.065 332.461 381.961C332.119 381.955 331.782 381.881 331.47 381.742C330.927 381.463 330.639 380.872 330.226 380.425C329.335 379.459 327.854 379.164 327.043 378.132C326.028 376.842 326.454 374.973 327.058 373.451C327.662 371.928 328.41 370.275 327.89 368.722C327.277 366.892 325.105 365.907 324.522 364.067C326.186 356.648 322.099 348.975 322.449 341.382C322.531 339.614 322.84 337.858 322.846 336.088C322.862 331.528 320.871 327.09 321.198 322.542C322.031 310.982 318.062 299.443 316.38 287.975C316.062 286.263 315.943 284.52 316.026 282.782C316.275 279.911 317.619 277.24 319.234 274.845C320.392 273.13 321.784 271.451 323.702 270.648C325.281 269.987 327.05 269.99 328.764 270.003C333.04 270.036 337.316 270.069 341.591 270.145C344.501 270.105 347.407 270.362 350.263 270.915C352.576 271.44 354.739 272.509 357.088 272.843Z" fill="#2F2E41"/>
<path d="M288.641 220.125C288.212 218.054 289.023 215.839 288.389 213.821C288.16 213.093 287.598 212.336 286.825 212.357C286.075 212.378 285.567 213.102 284.901 213.446C283.828 213.999 282.525 213.496 281.453 212.942C280.381 212.388 279.186 211.76 278.023 212.093C277.886 212.811 278.378 213.495 278.913 214.001C279.506 214.442 279.996 215.003 280.352 215.646C280.527 216.341 280.593 217.058 280.549 217.772C280.671 219.412 281.724 220.824 282.777 222.1C284.473 224.156 286.274 226.125 288.173 228C288.17 227.997 291.055 224.478 290.999 223.863C290.947 223.283 289.976 222.741 289.624 222.274C289.141 221.636 288.806 220.903 288.641 220.125Z" fill="#A1616A"/>
<path d="M370.591 262.375C370.833 263.024 371.015 263.696 371.133 264.38C371.834 267.888 372.276 271.444 372.712 274.997C372.828 275.945 372.944 276.894 372.98 277.849C373.103 280.117 372.651 282.379 371.669 284.411C370.669 286.448 368.971 288.028 366.903 288.843C366.267 289.076 365.377 289.119 365.099 288.483C365 288.189 365.002 287.869 365.105 287.576C365.356 286.63 365.868 285.781 366.2 284.862C366.692 283.488 366.774 281.994 366.435 280.572C366.305 280.028 366.029 279.422 365.496 279.313C365.762 280.567 365.538 281.879 364.873 282.963C364.722 283.266 364.461 283.494 364.147 283.599C363.694 283.646 363.269 283.363 363.124 282.917C362.994 282.48 362.966 282.017 363.041 281.566C363.212 279.287 363.548 277.025 364.047 274.798C364.641 272.353 365.582 269.941 365.521 267.422C365.467 265.139 364.585 262.897 364.832 260.628C364.836 260.487 364.879 260.351 364.958 260.237C365.035 260.157 365.13 260.097 365.234 260.062C365.851 259.798 366.487 259.581 367.135 259.412C367.518 259.312 368.825 258.844 369.192 259.053C369.489 259.223 369.581 260.24 369.729 260.584C369.992 261.194 370.342 261.759 370.591 262.375Z" fill="#A1616A"/>
<path d="M326 195C330.971 195 335 190.971 335 186C335 181.029 330.971 177 326 177C321.029 177 317 181.029 317 186C317 190.971 321.029 195 326 195Z" fill="#A1616A"/>
<path d="M334.684 192.61C334.683 193.202 334.73 193.794 334.824 194.378C334.952 194.97 335.132 195.548 335.364 196.107C335.673 197.015 336.109 197.875 336.659 198.66C337.218 199.451 338.055 199.998 339 200.193C332.678 203.17 325.928 205.13 319 206C320.092 205.27 321 204.296 321.653 203.154C322 202.421 322.236 201.64 322.356 200.837C322.946 197.478 322.646 194.021 321.487 190.814C321.372 190.498 321.259 190.11 321.477 189.854C321.569 189.76 321.682 189.686 321.805 189.64C324.552 188.471 327.519 187.915 330.501 188.01C331.263 188.016 332.025 188.05 332.785 188.105C333.193 188.134 334.096 188.048 334.421 188.349C334.809 188.708 334.615 189.822 334.627 190.309L334.684 192.61Z" fill="#A1616A"/>
<path d="M338.95 199.782C336.148 196.221 331.259 195.013 327.1 196.854C322.694 198.94 320.524 203.95 316.649 206.895C315.768 207.549 314.828 208.123 313.843 208.61C313.261 208.929 312.641 209.172 311.997 209.334C311.272 209.493 310.516 209.471 309.795 209.643C308.421 210.043 307.25 210.944 306.518 212.165C306.156 212.803 305.753 213.419 305.314 214.008C304.909 214.485 304.406 214.87 303.978 215.326C302.437 216.969 302.019 219.327 301.667 221.543C300.462 222.802 299.146 223.953 297.736 224.982C297.292 225.32 296.8 225.59 296.275 225.783C294.92 226.219 293.425 225.664 292.269 224.837C291.114 224.009 290.173 222.918 289.033 222.068C287.987 223.552 286.893 225.041 285.777 226.475C285.609 226.748 285.352 226.956 285.049 227.067C284.84 227.766 285.342 228.49 285.718 229.116L287.737 232.481C288.404 233.705 289.222 234.843 290.173 235.866C291.138 236.896 292.455 237.531 293.867 237.648C294.758 237.64 295.641 237.473 296.472 237.154C300.319 235.871 303.85 233.823 307.509 232.083C308.172 231.707 308.914 231.491 309.677 231.452C310.46 231.431 311.161 231.932 311.39 232.675C311.809 234.776 312.226 236.87 312.803 238.935C313.347 240.882 313.853 242.839 314.319 244.806C314.631 246.01 314.854 247.235 314.986 248.471C315.046 249.172 315.053 249.877 315.059 250.582L315.137 259.093C315.145 260.009 314.619 260.581 314.213 261.404C313.592 262.682 313.498 264.15 313.952 265.495C314.18 266.159 314.536 266.772 314.788 267.427C315.398 269.011 315.375 270.755 315.343 272.45L315.27 276.334C315.252 276.495 315.281 276.657 315.355 276.802C315.594 277.172 316.17 276.955 316.534 276.705L318.365 275.446C320.815 275.781 323.29 275.9 325.761 275.801C332.789 275.7 339.818 275.977 346.829 276.464C349.169 276.626 351.587 276.802 353.798 276.028C354.92 275.635 355.954 275.008 357.101 274.693C357.574 274.62 358.023 274.436 358.411 274.158C359.053 273.569 358.883 272.535 358.621 271.708C358.392 270.984 358.132 270.271 357.841 269.569C357.541 268.923 357.297 268.253 357.111 267.567C356.76 266.017 357.101 264.227 356.129 262.966C353.952 260.142 355.493 255.797 354.579 252.36C354.284 251.248 353.847 250.176 353.57 249.059C353.396 248.358 353.286 247.643 353.176 246.93C352.89 245.386 352.748 243.819 352.752 242.249C352.778 241.464 352.878 240.683 352.978 239.903L353.669 234.488C354.534 236.09 355.135 237.817 355.449 239.607C356.078 242.279 356.853 244.916 357.77 247.505C358.292 249.067 358.813 250.628 359.376 252.176C359.733 253.056 360.008 253.967 360.197 254.898C360.321 255.648 360.325 256.413 360.412 257.168C360.602 258.788 361.173 260.341 362.081 261.701C362.248 262.017 362.526 262.261 362.862 262.389C363.088 262.43 363.321 262.421 363.544 262.361C365.988 261.883 368.353 261.071 370.572 259.95C371.045 259.756 371.456 259.438 371.759 259.03C372.357 258.067 371.689 256.863 371.398 255.77C371.087 254.597 371.16 253.187 370.229 252.401C366.987 249.665 368.596 244.11 366.974 240.207C366.689 239.522 366.357 238.856 366.112 238.156C365.924 237.621 365.788 237.07 365.651 236.52C364.518 231.974 363.306 227.448 362.014 222.943C360.675 218.272 360.818 213.407 359.132 208.848C358.815 207.893 358.401 206.971 357.897 206.099C357.326 205.187 356.563 204.408 355.661 203.815C353.214 202.211 350.744 200.844 347.87 200.262C344.995 199.68 341.883 199.77 338.95 199.782Z" fill="#D0CDE1"/>
<path d="M317.599 188.129C316.349 187.46 316.679 185.643 316.466 184.248C316.029 181.377 312.766 179.674 312 176.873C312.88 176.98 313.773 176.855 314.589 176.508C314.746 175.578 314.561 174.623 314.067 173.818C316.751 172.734 318.923 170.607 321.648 169.63C325.075 168.402 328.891 169.156 332.348 170.298C334.073 170.868 335.868 171.607 336.911 173.087C338.056 174.713 338.039 176.852 337.977 178.835C337.881 181.946 337.757 185.169 336.364 187.956C334.59 191.505 329.567 194.792 325.417 193.831C323.691 193.431 323.183 192.354 322.456 190.863C322.003 189.935 321.833 188.857 320.814 188.375C319.817 187.903 318.61 188.67 317.599 188.129Z" fill="#2F2E41"/>
<g opacity="0.1">
<path d="M355.612 254.288C355.624 254.533 355.631 254.78 355.633 255.029C355.621 254.784 355.615 254.537 355.612 254.288Z" fill="black"/>
<path d="M315.526 263.57C316.136 265.164 316.113 266.919 316.081 268.625C316.073 269.07 316.064 269.516 316.056 269.961C316.017 269.041 315.839 268.132 315.526 267.266C315.274 266.607 314.918 265.989 314.69 265.321C314.3 264.153 314.314 262.888 314.731 261.73C314.959 262.358 315.288 262.946 315.526 263.57Z" fill="black"/>
</g>
<g opacity="0.1">
<path d="M314.483 174.968L314.474 174.972C314.398 174.395 314.242 173.842 314.013 173.341C314.155 173.264 314.295 173.182 314.434 173.097C314.544 173.71 314.56 174.346 314.483 174.968Z" fill="black"/>
</g>
<path d="M24 157L21.8249 155.016C14.1007 147.845 9.00126 143.191 9.00126 137.393C8.9626 135.164 9.81766 133.014 11.3717 131.434C12.9257 129.853 15.0463 128.975 17.2505 129.001C19.8566 129.015 22.3247 130.186 24 132.205C25.6752 130.186 28.1434 129.015 30.7494 129.001C32.9537 128.975 35.0743 129.853 36.6283 131.434C38.1823 133.014 39.0374 135.164 38.9987 137.393C38.9987 143.191 33.8992 147.845 26.1751 155.016L24 157Z" fill="#FF6584"/>
<path fill-rule="evenodd" clip-rule="evenodd" d="M28 152L25.8249 150.016C18.1007 142.845 13.0013 138.191 13.0013 132.393C12.9626 130.164 13.8177 128.014 15.3717 126.434C16.9257 124.853 19.0463 123.975 21.2505 124.001C23.8566 124.015 26.3247 125.186 28 127.205C29.6752 125.186 32.1434 124.015 34.7494 124.001C36.9537 123.975 39.0743 124.853 40.6283 126.434C42.1823 128.014 43.0374 130.164 42.9987 132.393C42.9987 138.191 37.8992 142.845 30.1751 150.016L28 152Z" stroke="#3F3D56" stroke-width="2"/>
</svg>
