<svg xmlns="http://www.w3.org/2000/svg" data-name="Layer 1" viewBox="0 0 512 512" id="electrician"><path fill="#57aafe" d="M447.56 501.999V376.302a60 60 0 0 0-33.656-53.907l-96.44-47.13a20 20 0 0 1-11.22-17.969v-35.158H205.203v35.429a20 20 0 0 1-11.219 17.969l-95.887 46.86a60 60 0 0 0-33.656 53.906V502a10 10 0 0 0 10 10h363.12a10 10 0 0 0 10-10Z"></path><path fill="#d34342" d="M172.929 420.812h-31.26V298.46a5 5 0 0 1 2.486-4.321l21.26-12.37a5 5 0 0 1 7.514 4.322zm166.142 0h31.26V298.46a5 5 0 0 0-2.486-4.321l-21.26-12.37a5 5 0 0 0-7.514 4.322z"></path><path fill="#f9beac" d="M256 304.499a98.147 98.147 0 0 0 67.156-26.452l-5.693-2.782a20 20 0 0 1-11.218-17.97v-35.157H205.202v35.428a20 20 0 0 1-11.219 17.97l-5.14 2.511A98.146 98.146 0 0 0 256 304.5Z"></path><path fill="#f96263" d="M128.12 511.999V401.812a30 30 0 0 1 30-30h195.76a30 30 0 0 1 30 30V512Z"></path><path fill="#f9beac" d="M128.12 463.902H64.44V502a10 10 0 0 0 10 10h53.68zm255.76 0h63.68V502a10 10 0 0 1-10 10h-53.68z"></path><path fill="#e58a7b" d="M264.247 275.158a39.662 39.662 0 0 0 24.42-8.41l17.578-13.734v-30.876H205.202v18.763a51.931 51.931 0 0 0 5.656 5.16l26.475 20.688a39.662 39.662 0 0 0 24.42 8.41Z"></path><path fill="#f9beac" d="M203.858 229.553a52.012 52.012 0 0 1-19.987-40.984v-72.396A31.873 31.873 0 0 1 215.744 84.3h80.513a31.873 31.873 0 0 1 31.873 31.873v72.396a52.012 52.012 0 0 1-19.988 40.984l-26.475 20.687a39.662 39.662 0 0 1-24.42 8.41h-2.494a39.662 39.662 0 0 1-24.42-8.41Z"></path><path fill="#343c4a" d="M291.142 218.002a27.031 27.031 0 0 0-27.032-27.03h-16.22a27.031 27.031 0 0 0-27.032 27.03v24.835l9.475 7.403a39.662 39.662 0 0 0 24.42 8.41h2.494a39.662 39.662 0 0 0 24.42-8.41l9.475-7.403Z"></path><path fill="#e58a7b" d="M328.13 168.606v-44.872a19.63 19.63 0 0 1 19.299 23.219l-1.234 6.638a18.375 18.375 0 0 1-18.066 15.015zm-144.26 0v-44.872a19.63 19.63 0 0 0-19.299 23.219l1.234 6.638a18.375 18.375 0 0 0 18.066 15.015zm72.142 56.559q-.452 0-.905-.012a35.149 35.149 0 0 1-12.502-2.635 3.5 3.5 0 0 1 2.658-6.476 28.174 28.174 0 0 0 10.021 2.113 28.472 28.472 0 0 0 11.454-2.114 3.5 3.5 0 0 1 2.656 6.477 35.096 35.096 0 0 1-13.382 2.647z"></path><path fill="#343c4a" d="M299.646 150.005a3.489 3.489 0 0 1-1.327-.262 28.478 28.478 0 0 0-11.454-2.114 28.166 28.166 0 0 0-10.02 2.113 3.5 3.5 0 1 1-2.659-6.475 35.22 35.22 0 0 1 26.789 0 3.5 3.5 0 0 1-1.33 6.738zm-12.065 18.291a3.5 3.5 0 0 1-3.5-3.5v-7.678a3.5 3.5 0 0 1 7 0v7.678a3.5 3.5 0 0 1-3.5 3.5zm-52.968-18.29a3.489 3.489 0 0 1-1.326-.263 28.474 28.474 0 0 0-11.454-2.114 28.16 28.16 0 0 0-10.02 2.113 3.5 3.5 0 0 1-2.659-6.475 35.22 35.22 0 0 1 26.788 0 3.5 3.5 0 0 1-1.329 6.738zm-12.064 18.29a3.5 3.5 0 0 1-3.5-3.5v-7.678a3.5 3.5 0 0 1 7 0v7.678a3.5 3.5 0 0 1-3.5 3.5z"></path><path fill="#e58a7b" d="M267.902 181.153v4.758A11.902 11.902 0 0 1 256 197.813a11.902 11.902 0 0 1-11.902-11.902v-4.758a3 3 0 0 1 3-3h17.804a3 3 0 0 1 3 3Z"></path><path fill="#f96263" d="M238.068 3.499h35.87a55.782 55.782 0 0 1 55.781 55.782v49.897H182.286V59.281a55.782 55.782 0 0 1 55.782-55.782Z"></path><path fill="#57aafe" d="m305.654 131.809-29.35-6.318a96.474 96.474 0 0 0-40.603 0l-29.35 6.318a18.335 18.335 0 0 1-20.6-10.45l-3.861-8.65a8.744 8.744 0 0 1 5.3-11.896 225.216 225.216 0 0 1 70.438-10.782c23.447.169 51.938 7.08 66.608 11.112a8.753 8.753 0 0 1 5.683 12.008l-3.664 8.207a18.335 18.335 0 0 1-20.601 10.45Z"></path><path fill="#ffbc5b" d="M263.162 18.462a3.312 3.312 0 0 1 3.32 4.423c-2.22 5.729-4.675 11.386-7.07 17.044-.145.343-.042.486.242.65 4.485 2.589 8.96 5.195 13.449 7.776a3.376 3.376 0 0 1 .718 5.61q-12.196 11.57-24.415 23.115c-1.365 1.292-2.71 1.585-4.11.908a3.223 3.223 0 0 1-1.65-4.082c.85-2.195 1.78-4.358 2.684-6.532q2.187-5.26 4.394-10.51c.15-.358.024-.485-.25-.643-4.541-2.611-9.127-5.17-13.61-7.876a3.362 3.362 0 0 1-.555-5.516q12.203-11.562 24.415-23.118a3.886 3.886 0 0 1 2.438-1.249Z"></path><circle cx="348" cy="409.499" r="17.5" fill="#ffbc5b"></circle><circle cx="166" cy="409.499" r="17.5" fill="#ffbc5b"></circle><path fill="#ffbc5b" d="M266.069 406.769a4.118 4.118 0 0 1 4.128 5.5c-2.76 7.124-5.814 14.159-8.792 21.195-.18.426-.051.603.302.807 5.576 3.22 11.14 6.46 16.723 9.67a4.198 4.198 0 0 1 .893 6.977q-15.166 14.386-30.36 28.743c-1.698 1.607-3.37 1.971-5.11 1.129a4.008 4.008 0 0 1-2.053-5.076c1.056-2.73 2.214-5.42 3.337-8.123q2.72-6.54 5.465-13.07c.187-.444.03-.602-.312-.798-5.646-3.247-11.348-6.429-16.924-9.795a4.181 4.181 0 0 1-.69-6.858q15.176-14.379 30.36-28.747a4.832 4.832 0 0 1 3.033-1.554Z"></path><path fill="#ededed" d="m477.982 230.702-25.321 31.981a5 5 0 0 0-.677 5.07l3.346 7.82a5 5 0 0 1-.267 4.466l-65.898 114.139 21.816 12.596 65.898-114.139a5 5 0 0 1 3.735-2.464l8.444-1.013a5 5 0 0 0 4.053-3.121l15.036-37.92a5 5 0 0 0-2.148-6.173l-21.597-12.469a5 5 0 0 0-6.42 1.227Z"></path><path fill="#343c4a" d="M400.948 398.96a25.167 25.167 0 0 1 9.212 34.378l-36.126 62.573a25.167 25.167 0 0 1-34.38 9.212 25.167 25.167 0 0 1-9.211-34.38l36.126-62.572a25.167 25.167 0 0 1 34.38-9.212Z"></path></svg>