<svg xmlns="http://www.w3.org/2000/svg" data-name="Layer 1" viewBox="0 0 512 512" id="mechanic"><path fill="#8fd17a" d="M57.05 511.999a10 10 0 0 1-10-10V376.366a71.154 71.154 0 0 1 50.693-68.081l93.212-28.105a30.495 30.495 0 0 0 21.726-29.178v-63.63h86.638v63.63a30.495 30.495 0 0 0 21.726 29.178l93.212 28.105a71.154 71.154 0 0 1 50.693 68.08V502a10 10 0 0 1-10 10Z"></path><path fill="#709653" d="M122.168 511.999V296.702a4 4 0 0 1 2.796-3.814l27.065-8.548a4 4 0 0 1 5.205 3.815l-.004 48.114a7 7 0 0 0 7 7h183.536a7 7 0 0 0 7-7v-48.114a4 4 0 0 1 5.205-3.815l27.065 8.548a4 4 0 0 1 2.796 3.814V512Z"></path><path fill="#f9beac" d="M57.05 511.999h65.118v-66.333H47.05V502a10 10 0 0 0 10 10zm332.782 0h65.118a10 10 0 0 0 10-10v-56.333h-75.118zm-81.813-239.727a30.398 30.398 0 0 1-8.7-21.27v-48.671l-15.005-14.959h-56.628l-15.005 14.959v48.671a30.398 30.398 0 0 1-8.7 21.27 73.68 73.68 0 0 0 104.038 0z"></path><path fill="#e58a7b" d="M284.314 187.373h-56.628l-15.005 14.958v48.671a30.249 30.249 0 0 1-.768 6.744 97.548 97.548 0 0 0 15.93 11.548A70.013 70.013 0 0 0 263 278.758a70.013 70.013 0 0 0 35.157-9.464q2.652-1.54 5.178-3.233a30.257 30.257 0 0 1-4.016-15.059v-48.671Z"></path><path fill="#f9beac" d="M291.157 253.446A70.013 70.013 0 0 1 256 262.91a70.013 70.013 0 0 1-35.157-9.464 97.206 97.206 0 0 1-48.457-84.043V90.15h167.228v79.254a97.206 97.206 0 0 1-48.457 84.043Z"></path><path fill="#343c4a" d="M339.614 148.027h-4.196a10.49 10.49 0 0 1-10.49-10.49V91.95h14.686zm-167.228 0h4.197a10.49 10.49 0 0 0 10.49-10.49V91.95h-14.687zm53.47 29.358a3.756 3.756 0 0 1 3.164-3.717 171.75 171.75 0 0 1 53.962 0 3.755 3.755 0 0 1 3.161 3.716v11.235a3.766 3.766 0 0 1-4.31 3.72 183.653 183.653 0 0 0-51.669 0 3.764 3.764 0 0 1-4.307-3.72z"></path><path fill="#e58a7b" d="M255.971 215.63q-.452 0-.903-.01a36.713 36.713 0 0 1-13.054-2.752 3.5 3.5 0 0 1 2.657-6.476 29.729 29.729 0 0 0 10.574 2.23 30.134 30.134 0 0 0 12.085-2.23 3.5 3.5 0 1 1 2.655 6.476 37.207 37.207 0 0 1-14.014 2.763zm12.515-52.193v3.844A12.486 12.486 0 0 1 256 179.766a12.486 12.486 0 0 1-12.486-12.485v-3.844a3 3 0 0 1 3-3h18.972a3 3 0 0 1 3 3z"></path><path fill="#343c4a" d="M306.438 129.442a3.482 3.482 0 0 1-1.326-.262 30.197 30.197 0 0 0-12.085-2.23 29.729 29.729 0 0 0-10.573 2.23 3.5 3.5 0 0 1-2.658-6.477 36.781 36.781 0 0 1 27.972 0 3.5 3.5 0 0 1-1.33 6.74zm-12.655 19.189a3.5 3.5 0 0 1-3.5-3.5v-8.055a3.5 3.5 0 0 1 7 0v8.055a3.5 3.5 0 0 1-3.5 3.5zm-88.221-19.189a3.5 3.5 0 0 1-1.33-6.739 36.78 36.78 0 0 1 27.97 0 3.5 3.5 0 1 1-2.655 6.477 30.194 30.194 0 0 0-12.085-2.23 29.724 29.724 0 0 0-10.573 2.23 3.501 3.501 0 0 1-1.327.262zm12.655 19.189a3.5 3.5 0 0 1-3.5-3.5v-8.055a3.5 3.5 0 0 1 7 0v8.055a3.5 3.5 0 0 1-3.5 3.5z"></path><path fill="#e58a7b" d="M339.614 160.437v-43.063h6.01a18.526 18.526 0 0 1 18.527 18.526 24.537 24.537 0 0 1-24.537 24.537ZM172.387 160.436A24.537 24.537 0 0 1 147.85 135.9a18.526 18.526 0 0 1 18.526-18.526h6.01v43.063Z"></path><path fill="#fff" d="M347.333 506.362a15.924 15.924 0 0 1-5.828-21.753l91.975-159.306 27.582 15.924-91.976 159.307a15.924 15.924 0 0 1-21.753 5.828Z"></path><path fill="#f2f2f2" d="M464.314 269.702 450.65 293.37a5.491 5.491 0 0 0 2.01 7.5l18.07 10.434a5.491 5.491 0 0 0 7.501-2.01l14.337-24.832a5.485 5.485 0 0 1 9.456-.102 46.677 46.677 0 1 1-42.767-22.893 5.496 5.496 0 0 1 5.057 8.236Z"></path><path fill="#8fd17a" d="M222.85 3.499h66.3a50.464 50.464 0 0 1 50.464 50.464V91.95H172.386V53.963A50.464 50.464 0 0 1 222.85 3.499Z"></path><path fill="#709653" d="M172.386 70.95h167.227v21H172.386z"></path></svg>