<svg xmlns="http://www.w3.org/2000/svg" data-name="Layer 1" viewBox="0 0 512 512" id="plumber"><path fill="#57aafe" d="M64.44 501.999V358.702a80 80 0 0 1 43.484-71.18l80.022-41.052a80 80 0 0 1 36.516-8.82h63.076a80 80 0 0 1 36.516 8.82l80.022 41.052a80 80 0 0 1 43.484 71.18v143.297a10 10 0 0 1-10 10H74.44a10 10 0 0 1-10-10Z"></path><path fill="#416bd0" d="M142.12 511.999a3.5 3.5 0 0 1-3.5-3.5v-73.174a3.5 3.5 0 0 1 7 0V508.5a3.5 3.5 0 0 1-3.5 3.5zm231 0a3.5 3.5 0 0 1-3.5-3.5v-73.174a3.5 3.5 0 0 1 7 0V508.5a3.5 3.5 0 0 1-3.5 3.5z"></path><path fill="#f9beac" d="m306.245 273.36-50.244 38.519-50.799-38.519v-67.563h101.043v67.563z"></path><path fill="#e58a7b" fill-rule="evenodd" d="M306.245 205.797h-4.41a19.058 19.058 0 0 1-16.293 0h-60.04a19.06 19.06 0 0 1-16.29 0h-4.01v40.504a61.41 61.41 0 0 0 18.158 11.328l31.337 12.61a5.998 5.998 0 0 0 4.48 0l31.337-12.61a61.461 61.461 0 0 0 15.73-9.248Z"></path><path fill="#f2f2f2" d="m483.725 352.746-31.222 54.079a13.491 13.491 0 0 1-11.744 6.745l-31.29-.139a14.93 14.93 0 0 0-12.996 7.465l-45.199 78.286A18.627 18.627 0 0 1 325.83 506a18.627 18.627 0 0 1-6.818-25.445l49.53-85.79 32.697-56.632a28.588 28.588 0 0 1 39.052-10.464Z"></path><path fill="#adb9d6" d="m457.604 397.987-30.632-17.685a4 4 0 0 1-1.464-5.464l10.503-18.19a4 4 0 0 1 5.464-1.465l30.632 17.685-14.503 25.119ZM505.049 315.812l-21.324 36.934-25.118-14.503 17.568-30.43a4.233 4.233 0 0 0-1.55-5.782l-27.546-15.904a3.958 3.958 0 0 1-1.449-5.408 25.046 25.046 0 0 1 34.214-9.167l15.788 9.115a25.728 25.728 0 0 1 9.417 35.145Z"></path><path fill="#dbe6fc" d="M270.411 511.999v-215.29l-14.41 15.17-14.41-15.17v215.29h28.82z"></path><path fill="#dbe6fc" d="m256 311.883 47.343-29.275a8.65 8.65 0 0 1 10.58 1.021l12.392 10.829a4 4 0 0 0 6.588-3.603l-6.353-42.592a15.102 15.102 0 0 0-4.105-8.559l-7.649-7.498c-4.766-4.672-11.53-3.391-15.086 2.858ZM256 311.883l-47.343-29.275a8.65 8.65 0 0 0-10.58 1.021l-12.392 10.829a4 4 0 0 1-6.588-3.603l6.353-42.592a15.102 15.102 0 0 1 4.105-8.559l7.649-7.498c4.766-4.672 11.53-3.391 15.086 2.858Z"></path><circle cx="256.001" cy="341.05" r="4.184" fill="#343c4a"></circle><circle cx="256.001" cy="382.886" r="4.184" fill="#343c4a"></circle><circle cx="256.001" cy="424.722" r="4.184" fill="#343c4a"></circle><circle cx="256.001" cy="458.19" r="4.184" fill="#343c4a"></circle><circle cx="256.001" cy="493.19" r="4.184" fill="#343c4a"></circle><path fill="#f9beac" d="M209.492 219.225a64.238 64.238 0 0 1-24.686-50.618v-66.434A31.873 31.873 0 0 1 216.679 70.3h80.513a31.873 31.873 0 0 1 31.873 31.873v66.433a64.238 64.238 0 0 1-24.686 50.618l-20.794 16.249a43.282 43.282 0 0 1-26.65 9.177 43.283 43.283 0 0 1-26.65-9.177Z"></path><path fill="#adb9d6" fill-rule="evenodd" d="m197.204 232.206-2.24 2.195a61.447 61.447 0 0 0 28.396 23.228l2.295.924-13.364-23.489c-3.556-6.25-10.32-7.53-15.087-2.858zm93.31 25.422a61.443 61.443 0 0 0 27.65-22.121l-3.368-3.3c-4.766-4.673-11.53-3.392-15.087 2.857l-13.92 24.466z"></path><path fill="#343c4a" fill-rule="evenodd" d="m184.81 156.679 16.075 27.5a19.093 19.093 0 0 0 25.893 6.977l9.674-5.479a14.383 14.383 0 0 1 7.088-1.868h23.96a14.383 14.383 0 0 1 7.087 1.867l9.683 5.483a19.093 19.093 0 0 0 25.893-6.982l18.902-32.347v34.728a61.518 61.518 0 0 1-38.551 57.07l-31.337 12.612a6 6 0 0 1-4.48 0l-31.337-12.61a61.518 61.518 0 0 1-38.552-57.075Z"></path><path fill="#e58a7b" d="M329.064 161.606v-44.872a19.63 19.63 0 0 1 19.3 23.219l-1.234 6.638a18.375 18.375 0 0 1-18.066 15.015zm-144.258 0v-44.872a19.63 19.63 0 0 0-19.3 23.219l1.234 6.638a18.375 18.375 0 0 0 18.066 15.015zm72.141 49.559c-.301 0-.602-.004-.905-.012a35.144 35.144 0 0 1-12.502-2.635 3.5 3.5 0 1 1 2.658-6.476 28.167 28.167 0 0 0 10.022 2.113 28.705 28.705 0 0 0 11.454-2.113 3.5 3.5 0 1 1 2.654 6.476 35.092 35.092 0 0 1-13.38 2.647z"></path><path fill="#343c4a" d="M300.581 136.005a3.487 3.487 0 0 1-1.326-.262 28.669 28.669 0 0 0-11.454-2.114 28.162 28.162 0 0 0-10.022 2.113 3.5 3.5 0 1 1-2.658-6.475 35.22 35.22 0 0 1 26.788 0 3.5 3.5 0 0 1-1.328 6.738zm-12.065 18.291a3.5 3.5 0 0 1-3.5-3.5v-7.678a3.5 3.5 0 0 1 7 0v7.678a3.5 3.5 0 0 1-3.5 3.5zm-52.967-18.29a3.487 3.487 0 0 1-1.326-.263 28.641 28.641 0 0 0-11.454-2.114 28.162 28.162 0 0 0-10.022 2.113 3.5 3.5 0 1 1-2.658-6.475 35.22 35.22 0 0 1 26.788 0 3.5 3.5 0 0 1-1.328 6.738zm-12.065 18.29a3.5 3.5 0 0 1-3.5-3.5v-7.678a3.5 3.5 0 0 1 7 0v7.678a3.5 3.5 0 0 1-3.5 3.5z"></path><path fill="#e58a7b" d="M267.902 172.065v5.433A11.902 11.902 0 0 1 256 189.4a11.902 11.902 0 0 1-11.902-11.902v-5.433a3 3 0 0 1 3-3h17.804a3 3 0 0 1 3 3Z"></path><path fill="#343c4a" d="M329.1 145.3h-4a10 10 0 0 1-10-10v-31l14-7zm-144.294 0h4a10 10 0 0 0 10-10v-38h-14z"></path><path fill="#dbe6fc" d="M214.412 3.499h85.051a31.19 31.19 0 0 1 31.191 31.191v60.488H183.221V34.69a31.19 31.19 0 0 1 31.191-31.191Z"></path><path fill="#57aafe" d="m306.589 117.809-29.35-6.318a96.474 96.474 0 0 0-40.603 0l-29.35 6.318a18.335 18.335 0 0 1-20.6-10.45l-3.861-8.65a8.744 8.744 0 0 1 5.3-11.896 225.216 225.216 0 0 1 70.438-10.782c23.447.169 51.938 7.08 66.608 11.112a8.753 8.753 0 0 1 5.683 12.008l-3.664 8.207a18.335 18.335 0 0 1-20.601 10.45Z"></path></svg>